<mxfile host="app.diagrams.net" agent="Mozilla/5.0 (Windows NT 10.0; Win64; x64) AppleWebKit/537.36 (KHTML, like Gecko) Chrome/131.0.0.0 Safari/537.36 Edg/131.0.0.0" version="25.0.3">
  <diagram name="第 1 页" id="ByYg3Uld5V0Hb_ZPw3hD">
    <mxGraphModel dx="784" dy="1133" grid="1" gridSize="10" guides="1" tooltips="1" connect="1" arrows="1" fold="1" page="1" pageScale="1" pageWidth="5000" pageHeight="5000" math="0" shadow="0">
      <root>
        <mxCell id="0" />
        <mxCell id="1" parent="0" />
        <mxCell id="AJ1ntIUB_7yPL7FSC-uC-12" style="edgeStyle=orthogonalEdgeStyle;rounded=0;orthogonalLoop=1;jettySize=auto;html=1;fontSize=16;" edge="1" parent="1" source="AJ1ntIUB_7yPL7FSC-uC-1" target="AJ1ntIUB_7yPL7FSC-uC-2">
          <mxGeometry relative="1" as="geometry" />
        </mxCell>
        <mxCell id="AJ1ntIUB_7yPL7FSC-uC-1" value="开始" style="rounded=1;whiteSpace=wrap;html=1;fontSize=16;" vertex="1" parent="1">
          <mxGeometry x="280" y="120" width="120" height="40" as="geometry" />
        </mxCell>
        <mxCell id="AJ1ntIUB_7yPL7FSC-uC-13" style="edgeStyle=orthogonalEdgeStyle;rounded=0;orthogonalLoop=1;jettySize=auto;html=1;entryX=0.5;entryY=0;entryDx=0;entryDy=0;fontSize=16;" edge="1" parent="1" source="AJ1ntIUB_7yPL7FSC-uC-2" target="AJ1ntIUB_7yPL7FSC-uC-3">
          <mxGeometry relative="1" as="geometry" />
        </mxCell>
        <mxCell id="AJ1ntIUB_7yPL7FSC-uC-35" value="N" style="edgeLabel;html=1;align=center;verticalAlign=middle;resizable=0;points=[];fontSize=16;" vertex="1" connectable="0" parent="AJ1ntIUB_7yPL7FSC-uC-13">
          <mxGeometry x="-0.3" y="2" relative="1" as="geometry">
            <mxPoint as="offset" />
          </mxGeometry>
        </mxCell>
        <mxCell id="AJ1ntIUB_7yPL7FSC-uC-24" style="edgeStyle=orthogonalEdgeStyle;rounded=0;orthogonalLoop=1;jettySize=auto;html=1;entryX=0.5;entryY=0;entryDx=0;entryDy=0;fontSize=16;" edge="1" parent="1" source="AJ1ntIUB_7yPL7FSC-uC-2" target="AJ1ntIUB_7yPL7FSC-uC-23">
          <mxGeometry relative="1" as="geometry">
            <Array as="points">
              <mxPoint x="520" y="240" />
              <mxPoint x="520" y="980" />
              <mxPoint x="340" y="980" />
            </Array>
          </mxGeometry>
        </mxCell>
        <mxCell id="AJ1ntIUB_7yPL7FSC-uC-36" value="Y" style="edgeLabel;html=1;align=center;verticalAlign=middle;resizable=0;points=[];fontSize=16;" vertex="1" connectable="0" parent="AJ1ntIUB_7yPL7FSC-uC-24">
          <mxGeometry x="-0.2079" y="1" relative="1" as="geometry">
            <mxPoint as="offset" />
          </mxGeometry>
        </mxCell>
        <mxCell id="AJ1ntIUB_7yPL7FSC-uC-2" value="已排课次数大于需要排课的次数？" style="rhombus;whiteSpace=wrap;html=1;fontSize=16;" vertex="1" parent="1">
          <mxGeometry x="207.5" y="200" width="265" height="80" as="geometry" />
        </mxCell>
        <mxCell id="AJ1ntIUB_7yPL7FSC-uC-14" style="edgeStyle=orthogonalEdgeStyle;rounded=0;orthogonalLoop=1;jettySize=auto;html=1;fontSize=16;" edge="1" parent="1" source="AJ1ntIUB_7yPL7FSC-uC-3" target="AJ1ntIUB_7yPL7FSC-uC-5">
          <mxGeometry relative="1" as="geometry" />
        </mxCell>
        <mxCell id="AJ1ntIUB_7yPL7FSC-uC-34" value="Y" style="edgeLabel;html=1;align=center;verticalAlign=middle;resizable=0;points=[];fontSize=16;" vertex="1" connectable="0" parent="AJ1ntIUB_7yPL7FSC-uC-14">
          <mxGeometry x="-0.4" relative="1" as="geometry">
            <mxPoint as="offset" />
          </mxGeometry>
        </mxCell>
        <mxCell id="AJ1ntIUB_7yPL7FSC-uC-3" value="获取有效时间，获取课程序列" style="rounded=0;whiteSpace=wrap;html=1;fontSize=16;" vertex="1" parent="1">
          <mxGeometry x="220" y="320" width="240" height="40" as="geometry" />
        </mxCell>
        <mxCell id="AJ1ntIUB_7yPL7FSC-uC-15" style="edgeStyle=orthogonalEdgeStyle;rounded=0;orthogonalLoop=1;jettySize=auto;html=1;entryX=0.5;entryY=0;entryDx=0;entryDy=0;fontSize=16;" edge="1" parent="1" source="AJ1ntIUB_7yPL7FSC-uC-5" target="AJ1ntIUB_7yPL7FSC-uC-6">
          <mxGeometry relative="1" as="geometry" />
        </mxCell>
        <mxCell id="AJ1ntIUB_7yPL7FSC-uC-33" value="Y" style="edgeLabel;html=1;align=center;verticalAlign=middle;resizable=0;points=[];fontSize=16;" vertex="1" connectable="0" parent="AJ1ntIUB_7yPL7FSC-uC-15">
          <mxGeometry x="-0.15" y="-1" relative="1" as="geometry">
            <mxPoint as="offset" />
          </mxGeometry>
        </mxCell>
        <mxCell id="AJ1ntIUB_7yPL7FSC-uC-27" style="edgeStyle=orthogonalEdgeStyle;rounded=0;orthogonalLoop=1;jettySize=auto;html=1;entryX=0;entryY=0.5;entryDx=0;entryDy=0;fontSize=16;" edge="1" parent="1" source="AJ1ntIUB_7yPL7FSC-uC-5" target="AJ1ntIUB_7yPL7FSC-uC-2">
          <mxGeometry relative="1" as="geometry">
            <Array as="points">
              <mxPoint x="160" y="440" />
              <mxPoint x="160" y="240" />
            </Array>
          </mxGeometry>
        </mxCell>
        <mxCell id="AJ1ntIUB_7yPL7FSC-uC-28" value="N" style="edgeLabel;html=1;align=center;verticalAlign=middle;resizable=0;points=[];fontSize=16;" vertex="1" connectable="0" parent="AJ1ntIUB_7yPL7FSC-uC-27">
          <mxGeometry x="-0.7657" y="1" relative="1" as="geometry">
            <mxPoint as="offset" />
          </mxGeometry>
        </mxCell>
        <mxCell id="AJ1ntIUB_7yPL7FSC-uC-5" value="有课程" style="rhombus;whiteSpace=wrap;html=1;fontSize=16;" vertex="1" parent="1">
          <mxGeometry x="235" y="400" width="210" height="80" as="geometry" />
        </mxCell>
        <mxCell id="AJ1ntIUB_7yPL7FSC-uC-16" style="edgeStyle=orthogonalEdgeStyle;rounded=0;orthogonalLoop=1;jettySize=auto;html=1;entryX=0.5;entryY=0;entryDx=0;entryDy=0;fontSize=16;" edge="1" parent="1" source="AJ1ntIUB_7yPL7FSC-uC-6" target="AJ1ntIUB_7yPL7FSC-uC-8">
          <mxGeometry relative="1" as="geometry" />
        </mxCell>
        <mxCell id="AJ1ntIUB_7yPL7FSC-uC-6" value="查找教师" style="rounded=0;whiteSpace=wrap;html=1;fontSize=16;" vertex="1" parent="1">
          <mxGeometry x="220" y="520" width="240" height="40" as="geometry" />
        </mxCell>
        <mxCell id="AJ1ntIUB_7yPL7FSC-uC-17" style="edgeStyle=orthogonalEdgeStyle;rounded=0;orthogonalLoop=1;jettySize=auto;html=1;entryX=0.5;entryY=0;entryDx=0;entryDy=0;fontSize=16;" edge="1" parent="1" source="AJ1ntIUB_7yPL7FSC-uC-8" target="AJ1ntIUB_7yPL7FSC-uC-9">
          <mxGeometry relative="1" as="geometry" />
        </mxCell>
        <mxCell id="AJ1ntIUB_7yPL7FSC-uC-32" value="Y" style="edgeLabel;html=1;align=center;verticalAlign=middle;resizable=0;points=[];fontSize=16;" vertex="1" connectable="0" parent="AJ1ntIUB_7yPL7FSC-uC-17">
          <mxGeometry x="0.32" y="1" relative="1" as="geometry">
            <mxPoint as="offset" />
          </mxGeometry>
        </mxCell>
        <mxCell id="AJ1ntIUB_7yPL7FSC-uC-26" style="edgeStyle=orthogonalEdgeStyle;rounded=0;orthogonalLoop=1;jettySize=auto;html=1;entryX=0;entryY=0.5;entryDx=0;entryDy=0;fontSize=16;" edge="1" parent="1" source="AJ1ntIUB_7yPL7FSC-uC-8" target="AJ1ntIUB_7yPL7FSC-uC-2">
          <mxGeometry relative="1" as="geometry">
            <Array as="points">
              <mxPoint x="160" y="650" />
              <mxPoint x="160" y="240" />
            </Array>
          </mxGeometry>
        </mxCell>
        <mxCell id="AJ1ntIUB_7yPL7FSC-uC-29" value="N" style="edgeLabel;html=1;align=center;verticalAlign=middle;resizable=0;points=[];fontSize=16;" vertex="1" connectable="0" parent="AJ1ntIUB_7yPL7FSC-uC-26">
          <mxGeometry x="-0.8464" y="1" relative="1" as="geometry">
            <mxPoint as="offset" />
          </mxGeometry>
        </mxCell>
        <mxCell id="AJ1ntIUB_7yPL7FSC-uC-8" value="有教师？" style="rhombus;whiteSpace=wrap;html=1;fontSize=16;" vertex="1" parent="1">
          <mxGeometry x="235" y="610" width="210" height="80" as="geometry" />
        </mxCell>
        <mxCell id="AJ1ntIUB_7yPL7FSC-uC-18" style="edgeStyle=orthogonalEdgeStyle;rounded=0;orthogonalLoop=1;jettySize=auto;html=1;entryX=0.5;entryY=0;entryDx=0;entryDy=0;fontSize=16;" edge="1" parent="1" source="AJ1ntIUB_7yPL7FSC-uC-9" target="AJ1ntIUB_7yPL7FSC-uC-10">
          <mxGeometry relative="1" as="geometry" />
        </mxCell>
        <mxCell id="AJ1ntIUB_7yPL7FSC-uC-9" value="查找教室" style="rounded=0;whiteSpace=wrap;html=1;fontSize=16;" vertex="1" parent="1">
          <mxGeometry x="220" y="720" width="240" height="40" as="geometry" />
        </mxCell>
        <mxCell id="AJ1ntIUB_7yPL7FSC-uC-19" style="edgeStyle=orthogonalEdgeStyle;rounded=0;orthogonalLoop=1;jettySize=auto;html=1;fontSize=16;" edge="1" parent="1" source="AJ1ntIUB_7yPL7FSC-uC-10" target="AJ1ntIUB_7yPL7FSC-uC-11">
          <mxGeometry relative="1" as="geometry" />
        </mxCell>
        <mxCell id="AJ1ntIUB_7yPL7FSC-uC-31" value="Y" style="edgeLabel;html=1;align=center;verticalAlign=middle;resizable=0;points=[];fontSize=16;" vertex="1" connectable="0" parent="AJ1ntIUB_7yPL7FSC-uC-19">
          <mxGeometry x="-0.3" relative="1" as="geometry">
            <mxPoint as="offset" />
          </mxGeometry>
        </mxCell>
        <mxCell id="AJ1ntIUB_7yPL7FSC-uC-25" style="edgeStyle=orthogonalEdgeStyle;rounded=0;orthogonalLoop=1;jettySize=auto;html=1;entryX=0;entryY=0.5;entryDx=0;entryDy=0;fontSize=16;" edge="1" parent="1" source="AJ1ntIUB_7yPL7FSC-uC-10" target="AJ1ntIUB_7yPL7FSC-uC-2">
          <mxGeometry relative="1" as="geometry">
            <Array as="points">
              <mxPoint x="160" y="840" />
              <mxPoint x="160" y="240" />
            </Array>
          </mxGeometry>
        </mxCell>
        <mxCell id="AJ1ntIUB_7yPL7FSC-uC-30" value="N" style="edgeLabel;html=1;align=center;verticalAlign=middle;resizable=0;points=[];fontSize=16;" vertex="1" connectable="0" parent="AJ1ntIUB_7yPL7FSC-uC-25">
          <mxGeometry x="-0.912" y="3" relative="1" as="geometry">
            <mxPoint as="offset" />
          </mxGeometry>
        </mxCell>
        <mxCell id="AJ1ntIUB_7yPL7FSC-uC-10" value="有教室？" style="rhombus;whiteSpace=wrap;html=1;fontSize=16;" vertex="1" parent="1">
          <mxGeometry x="235" y="800" width="210" height="80" as="geometry" />
        </mxCell>
        <mxCell id="AJ1ntIUB_7yPL7FSC-uC-20" style="edgeStyle=orthogonalEdgeStyle;rounded=0;orthogonalLoop=1;jettySize=auto;html=1;entryX=0;entryY=0.5;entryDx=0;entryDy=0;fontSize=16;" edge="1" parent="1" source="AJ1ntIUB_7yPL7FSC-uC-11" target="AJ1ntIUB_7yPL7FSC-uC-2">
          <mxGeometry relative="1" as="geometry">
            <Array as="points">
              <mxPoint x="160" y="940" />
              <mxPoint x="160" y="240" />
              <mxPoint x="208" y="240" />
            </Array>
          </mxGeometry>
        </mxCell>
        <mxCell id="AJ1ntIUB_7yPL7FSC-uC-11" value="保存本门课程排课信息" style="rounded=0;whiteSpace=wrap;html=1;fontSize=16;" vertex="1" parent="1">
          <mxGeometry x="220" y="920" width="240" height="40" as="geometry" />
        </mxCell>
        <mxCell id="AJ1ntIUB_7yPL7FSC-uC-23" value="开始" style="rounded=1;whiteSpace=wrap;html=1;fontSize=16;" vertex="1" parent="1">
          <mxGeometry x="280" y="1000" width="120" height="40" as="geometry" />
        </mxCell>
      </root>
    </mxGraphModel>
  </diagram>
</mxfile>
